<svg width="16" height="16" viewBox="0 0 16 16" fill="none" xmlns="http://www.w3.org/2000/svg">
<g clip-path="url(#clip0_16_3445)">
<path d="M2 7.75133L6.76116 11.0841C7.14672 11.354 7.3395 11.489 7.54919 11.5412C7.73439 11.5874 7.92811 11.5874 8.11331 11.5412C8.323 11.489 8.51578 11.354 8.90134 11.0841L13.6625 7.75133M4.799 15.332H10.8635C11.8433 15.332 12.3331 15.332 12.7073 15.1413C13.0365 14.9736 13.3041 14.706 13.4718 14.3768C13.6625 14.0025 13.6625 13.5127 13.6625 12.533V8.80095C13.6625 7.82121 13.6625 7.33134 13.4718 6.95713C13.3041 6.62796 13.0365 6.36034 12.7073 6.19262C12.3331 6.00195 11.8433 6.00195 10.8635 6.00195H4.799C3.81926 6.00195 3.32938 6.00195 2.95518 6.19262C2.62601 6.36034 2.35839 6.62796 2.19067 6.95713C2 7.33134 2 7.82121 2 8.80095V12.533C2 13.5127 2 14.0025 2.19067 14.3768C2.35839 14.706 2.62601 14.9736 2.95518 15.1413C3.32938 15.332 3.81926 15.332 4.799 15.332Z" stroke="#0F172A" stroke-width="1.3" stroke-linecap="round" stroke-linejoin="round"/>
<path d="M12.5 3.3335L3 3.3335" stroke="#0F172A" stroke-width="1.3" stroke-linecap="round" stroke-linejoin="round"/>
<path d="M11.3245 1.3335L4.5 1.3335" stroke="#0F172A" stroke-width="1.3" stroke-linecap="round" stroke-linejoin="round"/>
</g>
<defs>
<clipPath id="clip0_16_3445">
<rect width="16" height="16" fill="white"/>
</clipPath>
</defs>
</svg>
