<svg width="16" height="16" viewBox="0 0 16 16" fill="none" xmlns="http://www.w3.org/2000/svg">
<path d="M5.6 2H3.06667C2.6933 2 2.50661 2 2.36401 2.07266C2.23857 2.13658 2.13658 2.23857 2.07266 2.36401C2 2.50661 2 2.6933 2 3.06667V5.6C2 5.97337 2 6.16005 2.07266 6.30266C2.13658 6.4281 2.23857 6.53009 2.36401 6.59401C2.50661 6.66667 2.6933 6.66667 3.06667 6.66667H5.6C5.97337 6.66667 6.16005 6.66667 6.30266 6.59401C6.4281 6.53009 6.53009 6.4281 6.59401 6.30266C6.66667 6.16005 6.66667 5.97337 6.66667 5.6V3.06667C6.66667 2.6933 6.66667 2.50661 6.59401 2.36401C6.53009 2.23857 6.4281 2.13658 6.30266 2.07266C6.16005 2 5.97337 2 5.6 2Z" stroke="#0F172A" stroke-width="1.3" stroke-linecap="round" stroke-linejoin="round"/>
<path d="M12.9334 2H10.4C10.0266 2 9.83997 2 9.69737 2.07266C9.57191 2.13658 9.46997 2.23857 9.40604 2.36401C9.33337 2.50661 9.33337 2.6933 9.33337 3.06667V5.6C9.33337 5.97337 9.33337 6.16005 9.40604 6.30266C9.46997 6.4281 9.57191 6.53009 9.69737 6.59401C9.83997 6.66667 10.0266 6.66667 10.4 6.66667H12.9334C13.3068 6.66667 13.4934 6.66667 13.636 6.59401C13.7615 6.53009 13.8634 6.4281 13.9274 6.30266C14 6.16005 14 5.97337 14 5.6V3.06667C14 2.6933 14 2.50661 13.9274 2.36401C13.8634 2.23857 13.7615 2.13658 13.636 2.07266C13.4934 2 13.3068 2 12.9334 2Z" stroke="#0F172A" stroke-width="1.3" stroke-linecap="round" stroke-linejoin="round"/>
<path d="M12.9334 9.3335H10.4C10.0266 9.3335 9.83997 9.3335 9.69737 9.40616C9.57191 9.4701 9.46997 9.57203 9.40604 9.6975C9.33337 9.8401 9.33337 10.0268 9.33337 10.4002V12.9335C9.33337 13.3069 9.33337 13.4936 9.40604 13.6362C9.46997 13.7616 9.57191 13.8636 9.69737 13.9275C9.83997 14.0002 10.0266 14.0002 10.4 14.0002H12.9334C13.3068 14.0002 13.4934 14.0002 13.636 13.9275C13.7615 13.8636 13.8634 13.7616 13.9274 13.6362C14 13.4936 14 13.3069 14 12.9335V10.4002C14 10.0268 14 9.8401 13.9274 9.6975C13.8634 9.57203 13.7615 9.4701 13.636 9.40616C13.4934 9.3335 13.3068 9.3335 12.9334 9.3335Z" stroke="#0F172A" stroke-width="1.3" stroke-linecap="round" stroke-linejoin="round"/>
<path d="M5.6 9.3335H3.06667C2.6933 9.3335 2.50661 9.3335 2.36401 9.40616C2.23857 9.4701 2.13658 9.57203 2.07266 9.6975C2 9.8401 2 10.0268 2 10.4002V12.9335C2 13.3069 2 13.4936 2.07266 13.6362C2.13658 13.7616 2.23857 13.8636 2.36401 13.9275C2.50661 14.0002 2.6933 14.0002 3.06667 14.0002H5.6C5.97337 14.0002 6.16005 14.0002 6.30266 13.9275C6.4281 13.8636 6.53009 13.7616 6.59401 13.6362C6.66667 13.4936 6.66667 13.3069 6.66667 12.9335V10.4002C6.66667 10.0268 6.66667 9.8401 6.59401 9.6975C6.53009 9.57203 6.4281 9.4701 6.30266 9.40616C6.16005 9.3335 5.97337 9.3335 5.6 9.3335Z" stroke="#0F172A" stroke-width="1.3" stroke-linecap="round" stroke-linejoin="round"/>
</svg>
