<svg width="14" height="14" viewBox="0 0 14 14" fill="none" xmlns="http://www.w3.org/2000/svg">
<path d="M6.41669 2.33314H3.96669C2.98659 2.33314 2.49655 2.33314 2.1222 2.52388C1.79292 2.69166 1.5252 2.95938 1.35743 3.28866C1.16669 3.663 1.16669 4.15305 1.16669 5.13314V10.0332C1.16669 11.0132 1.16669 11.5033 1.35743 11.8776C1.5252 12.2069 1.79292 12.4746 2.1222 12.6424C2.49655 12.8331 2.98659 12.8331 3.96669 12.8331H8.86669C9.8468 12.8331 10.3368 12.8331 10.7112 12.6424C11.0405 12.4746 11.3082 12.2069 11.4759 11.8776C11.6667 11.5033 11.6667 11.0132 11.6667 10.0332V7.58315M4.66667 9.33315H5.64349C5.92884 9.33315 6.07153 9.33315 6.20581 9.30089C6.32481 9.27231 6.43862 9.22518 6.54304 9.16124C6.66075 9.08908 6.76167 8.98817 6.96345 8.78639L12.5417 3.20814C13.0249 2.72489 13.0249 1.94139 12.5417 1.45814C12.0585 0.974894 11.2749 0.974888 10.7917 1.45814L5.2134 7.03639C5.01163 7.23817 4.91074 7.33908 4.83859 7.4568C4.77463 7.56122 4.72749 7.67497 4.6989 7.79403C4.66667 7.92831 4.66667 8.07099 4.66667 8.35636V9.33315Z" stroke="#334155" stroke-width="1.1" stroke-linecap="round" stroke-linejoin="round"/>
</svg>
