<svg width="16" height="16" viewBox="0 0 16 16" fill="none" xmlns="http://www.w3.org/2000/svg">
<g clip-path="url(#clip0_16_3440)">
<path d="M8.66667 2.33333V4.13333C8.66667 5.25344 8.66667 5.81349 8.88467 6.24131C9.0764 6.61764 9.38233 6.9236 9.75867 7.11533C10.1865 7.33333 10.7465 7.33333 11.8667 7.33333H13.6667M14 8.6588V10.8C14 11.9201 14 12.4801 13.782 12.908C13.5903 13.2843 13.2843 13.5903 12.908 13.782C12.4801 14 11.9201 14 10.8 14H5.2C4.07989 14 3.51984 14 3.09202 13.782C2.71569 13.5903 2.40973 13.2843 2.21799 12.908C2 12.4801 2 11.9201 2 10.8V5.2C2 4.07989 2 3.51984 2.21799 3.09202C2.40973 2.71569 2.71569 2.40973 3.09202 2.21799C3.51984 2 4.07989 2 5.2 2H7.3412C7.83033 2 8.07493 2 8.30513 2.05526C8.5092 2.10425 8.70427 2.18506 8.88327 2.29472C9.08507 2.4184 9.258 2.59135 9.60393 2.93726L13.0627 6.39607C13.4087 6.742 13.5816 6.91493 13.7053 7.11673C13.8149 7.29573 13.8957 7.4908 13.9447 7.69487C14 7.92507 14 8.16967 14 8.6588Z" stroke="#0F172A" stroke-width="1.3" stroke-linecap="round" stroke-linejoin="round"/>
</g>
<defs>
<clipPath id="clip0_16_3440">
<rect width="16" height="16" fill="white"/>
</clipPath>
</defs>
</svg>
