<svg width="14" height="14" viewBox="0 0 14 14" fill="none" xmlns="http://www.w3.org/2000/svg">
<g clip-path="url(#clip0_19_4647)">
<g clip-path="url(#clip1_19_4647)">
<path d="M1.67761 10.5675C1.70441 10.3263 1.71781 10.2057 1.7543 10.093C1.78667 9.993 1.83242 9.89786 1.89029 9.81007C1.95551 9.71114 2.04132 9.62539 2.21293 9.45377L9.9166 1.7501C10.561 1.10576 11.6056 1.10576 12.2499 1.7501C12.8943 2.39443 12.8943 3.4391 12.2499 4.08343L4.54626 11.7871C4.37465 11.9587 4.28885 12.0445 4.18994 12.1097C4.10218 12.1676 4.007 12.2133 3.907 12.2457C3.79427 12.2822 3.67367 12.2956 3.43247 12.3224L1.45825 12.5418L1.67761 10.5675Z" stroke="#334155" stroke-width="1.1" stroke-linecap="round" stroke-linejoin="round"/>
</g>
</g>
<defs>
<clipPath id="clip0_19_4647">
<rect width="14" height="14" fill="white"/>
</clipPath>
<clipPath id="clip1_19_4647">
<rect width="14" height="14" fill="white"/>
</clipPath>
</defs>
</svg>
