<svg width="16" height="16" viewBox="0 0 16 16" fill="none" xmlns="http://www.w3.org/2000/svg">
<path d="M1 4.11122C1 3.69866 1.16389 3.303 1.45561 3.01128C1.74733 2.71955 2.143 2.55566 2.55556 2.55566H13.4444C13.857 2.55566 14.2527 2.71955 14.5444 3.01128C14.8361 3.303 15 3.69866 15 4.11122M1 4.11122V11.889C1 12.3016 1.16389 12.6972 1.45561 12.9889C1.74733 13.2807 2.143 13.4446 2.55556 13.4446H13.4444C13.857 13.4446 14.2527 13.2807 14.5444 12.9889C14.8361 12.6972 15 12.3016 15 11.889V4.11122M1 4.11122L8 8.77789L15 4.11122" stroke="#334155" stroke-width="1.3" stroke-linecap="round" stroke-linejoin="round"/>
</svg>
