<svg width="28" height="28" viewBox="0 0 28 28" fill="none" xmlns="http://www.w3.org/2000/svg">
<path fill-rule="evenodd" clip-rule="evenodd" d="M12.2806 1.33632C13.4829 0.628126 14.9666 0.628127 16.1689 1.33632L24.0693 5.98995C25.2644 6.69387 25.9999 7.99068 25.9999 9.39362V18.7327C25.9999 20.1356 25.2644 21.4324 24.0693 22.1364L16.1689 26.79C14.9666 27.4982 13.4829 27.4982 12.2806 26.79L4.3802 22.1364C3.18516 21.4324 2.44958 20.1356 2.44958 18.7327V9.39362C2.44958 7.99068 3.18516 6.69387 4.3802 5.98995L12.2806 1.33632Z" fill="#FDB022"/>
<path d="M15.207 13.4785C16.926 13.4785 18.3193 14.8718 18.3193 16.5908V20.498C16.6005 20.4978 15.207 19.1036 15.207 17.3848V13.4785ZM10.5391 7.88086C12.2579 7.88096 13.6513 9.27433 13.6514 10.9932V20.165C11.9324 20.165 10.5391 18.7717 10.5391 17.0527V7.88086Z" fill="white"/>
</svg>
