<svg width="16" height="16" viewBox="0 0 16 16" fill="none" xmlns="http://www.w3.org/2000/svg">
<path d="M1.66671 7.99984H3.92135C4.37815 7.99984 4.79575 8.2579 5.00004 8.6665C5.20433 9.0751 5.62193 9.33317 6.07873 9.33317H9.92137C10.3782 9.33317 10.7958 9.0751 11 8.6665C11.2043 8.2579 11.6219 7.99984 12.0787 7.99984H14.3334M5.97775 2.6665H10.0223C10.7402 2.6665 11.0992 2.6665 11.4161 2.77581C11.6964 2.87248 11.9516 3.03024 12.1634 3.23767C12.4029 3.47224 12.5634 3.7933 12.8845 4.43542L14.3288 7.32417C14.4548 7.57617 14.5178 7.70217 14.5623 7.83417C14.6018 7.9515 14.6302 8.07217 14.6474 8.1947C14.6667 8.33264 14.6667 8.4735 14.6667 8.75524V10.1332C14.6667 11.2533 14.6667 11.8133 14.4487 12.2412C14.257 12.6175 13.951 12.9234 13.5747 13.1152C13.1468 13.3332 12.5868 13.3332 11.4667 13.3332H4.53337C3.41327 13.3332 2.85321 13.3332 2.42539 13.1152C2.04907 12.9234 1.74311 12.6175 1.55136 12.2412C1.33337 11.8133 1.33337 11.2533 1.33337 10.1332V8.75524C1.33337 8.4735 1.33337 8.33264 1.35269 8.1947C1.36985 8.07217 1.39833 7.9515 1.43779 7.83417C1.48221 7.70217 1.54521 7.57617 1.67121 7.32417L3.11558 4.43542C3.43664 3.7933 3.59717 3.47224 3.83667 3.23767C4.04846 3.03024 4.30371 2.87248 4.58397 2.77581C4.90087 2.6665 5.25983 2.6665 5.97775 2.6665Z" stroke="#0F172A" stroke-width="1.3" stroke-linecap="round" stroke-linejoin="round"/>
</svg>
