<svg width="16" height="16" viewBox="0 0 16 16" fill="none" xmlns="http://www.w3.org/2000/svg">
<g clip-path="url(#clip0_16_3497)">
<path d="M6.66671 10.0002L4.61653 12.076C4.33057 12.3655 4.18758 12.5103 4.06467 12.5205C3.95805 12.5294 3.85365 12.4865 3.78401 12.4052C3.70375 12.3116 3.70375 12.1082 3.70375 11.7012V10.6612C3.70375 10.2962 3.40475 10.032 3.04351 9.97903C2.1692 9.85096 1.48256 9.16436 1.35449 8.29003C1.33337 8.1459 1.33337 7.97383 1.33337 7.62976V4.5335C1.33337 3.41339 1.33337 2.85334 1.55136 2.42552C1.74311 2.04919 2.04907 1.74323 2.42539 1.55148C2.85321 1.3335 3.41327 1.3335 4.53337 1.3335H9.46671C10.5868 1.3335 11.1468 1.3335 11.5747 1.55148C11.951 1.74323 12.257 2.04919 12.4487 2.42552C12.6667 2.85334 12.6667 3.41339 12.6667 4.5335V7.3335M12.6667 14.6668L11.2158 13.6581C11.0118 13.5163 10.9098 13.4454 10.7988 13.3951C10.7003 13.3505 10.5968 13.318 10.4904 13.2984C10.3706 13.2764 10.2464 13.2764 9.99797 13.2764H8.80004C8.05331 13.2764 7.67991 13.2764 7.39471 13.131C7.14384 13.0032 6.93984 12.7992 6.81204 12.5484C6.66671 12.2631 6.66671 11.8898 6.66671 11.143V9.46683C6.66671 8.7201 6.66671 8.3467 6.81204 8.0615C6.93984 7.81063 7.14384 7.60663 7.39471 7.47883C7.67991 7.3335 8.05331 7.3335 8.80004 7.3335H12.5334C13.2801 7.3335 13.6535 7.3335 13.9387 7.47883C14.1896 7.60663 14.3936 7.81063 14.5214 8.0615C14.6667 8.3467 14.6667 8.7201 14.6667 9.46683V11.2764C14.6667 11.8976 14.6667 12.2082 14.5652 12.4533C14.4299 12.78 14.1703 13.0396 13.8436 13.1748C13.5986 13.2764 13.288 13.2764 12.6667 13.2764V14.6668Z" stroke="#334155" stroke-width="1.3" stroke-linecap="round" stroke-linejoin="round"/>
</g>
<defs>
<clipPath id="clip0_16_3497">
<rect width="16" height="16" fill="white"/>
</clipPath>
</defs>
</svg>
