<svg width="16" height="16" viewBox="0 0 16 16" fill="none" xmlns="http://www.w3.org/2000/svg">
<path d="M7.99967 8.66536C8.36787 8.66536 8.66634 8.3669 8.66634 7.9987C8.66634 7.6305 8.36787 7.33203 7.99967 7.33203C7.63147 7.33203 7.33301 7.6305 7.33301 7.9987C7.33301 8.3669 7.63147 8.66536 7.99967 8.66536Z" stroke="#0F172A" stroke-width="1.3" stroke-linecap="round" stroke-linejoin="round"/>
<path d="M7.99967 4.0013C8.36787 4.0013 8.66634 3.70282 8.66634 3.33464C8.66634 2.96645 8.36787 2.66797 7.99967 2.66797C7.63147 2.66797 7.33301 2.96645 7.33301 3.33464C7.33301 3.70282 7.63147 4.0013 7.99967 4.0013Z" stroke="#0F172A" stroke-width="1.3" stroke-linecap="round" stroke-linejoin="round"/>
<path d="M7.99967 13.3333C8.36787 13.3333 8.66634 13.0349 8.66634 12.6667C8.66634 12.2985 8.36787 12 7.99967 12C7.63147 12 7.33301 12.2985 7.33301 12.6667C7.33301 13.0349 7.63147 13.3333 7.99967 13.3333Z" stroke="#0F172A" stroke-width="1.3" stroke-linecap="round" stroke-linejoin="round"/>
</svg>
