<svg width="14" height="14" viewBox="0 0 14 14" fill="none" xmlns="http://www.w3.org/2000/svg">
<path d="M5.45659 12.2498C5.86791 12.6129 6.40825 12.8332 6.99998 12.8332C7.59177 12.8332 8.13206 12.6129 8.54336 12.2498M10.5 4.6665C10.5 3.73825 10.1313 2.84801 9.47489 2.19163C8.81847 1.53525 7.92824 1.1665 6.99998 1.1665C6.07172 1.1665 5.1815 1.53525 4.52512 2.19163C3.86874 2.84801 3.49999 3.73825 3.49999 4.6665C3.49999 6.46912 3.04527 7.70334 2.53729 8.51965C2.10882 9.20828 1.89458 9.55256 1.90243 9.64864C1.91113 9.75498 1.93366 9.79552 2.01936 9.8591C2.09676 9.9165 2.44567 9.9165 3.14349 9.9165H10.8565C11.5543 9.9165 11.9032 9.9165 11.9806 9.8591C12.0663 9.79552 12.0889 9.75498 12.0976 9.64864C12.1054 9.55256 11.8912 9.20828 11.4627 8.51965C10.9547 7.70334 10.5 6.46912 10.5 4.6665Z" stroke="#334155" stroke-width="1.1" stroke-linecap="round" stroke-linejoin="round"/>
</svg>
