<svg width="16" height="16" viewBox="0 0 16 16" fill="none" xmlns="http://www.w3.org/2000/svg">
<path d="M6.23609 14.0002C6.70616 14.4151 7.32369 14.6668 7.99996 14.6668C8.67629 14.6668 9.29376 14.4151 9.76383 14.0002M12 5.3335C12 4.27263 11.5786 3.25522 10.8284 2.50507C10.0782 1.75492 9.06083 1.3335 7.99996 1.3335C6.93909 1.3335 5.92169 1.75492 5.17155 2.50507C4.4214 3.25522 3.99997 4.27263 3.99997 5.3335C3.99997 7.39363 3.48029 8.80416 2.89975 9.7371C2.41006 10.5241 2.16521 10.9176 2.17419 11.0274C2.18413 11.1489 2.20988 11.1952 2.30782 11.2679C2.39628 11.3335 2.79503 11.3335 3.59254 11.3335H12.4074C13.2049 11.3335 13.6037 11.3335 13.6921 11.2679C13.7901 11.1952 13.8158 11.1489 13.8258 11.0274C13.8348 10.9176 13.5899 10.5241 13.1002 9.7371C12.5196 8.80416 12 7.39363 12 5.3335Z" stroke="#334155" stroke-width="1.3" stroke-linecap="round" stroke-linejoin="round"/>
</svg>
