<svg width="14" height="14" viewBox="0 0 14 14" fill="none" xmlns="http://www.w3.org/2000/svg">
<path d="M1.16669 4.0835L5.92954 7.41748C6.31524 7.6875 6.5081 7.82249 6.71786 7.87475C6.90313 7.92095 7.09691 7.92095 7.28218 7.87475C7.49195 7.82249 7.6848 7.6875 8.0705 7.41748L12.8334 4.0835M3.96669 11.6668H10.0334C11.0135 11.6668 11.5035 11.6668 11.8779 11.4761C12.2071 11.3083 12.4748 11.0406 12.6426 10.7113C12.8334 10.3369 12.8334 9.84695 12.8334 8.86683V5.1335C12.8334 4.1534 12.8334 3.66336 12.6426 3.28901C12.4748 2.95973 12.2071 2.69201 11.8779 2.52423C11.5035 2.3335 11.0135 2.3335 10.0334 2.3335H3.96669C2.98659 2.3335 2.49655 2.3335 2.1222 2.52423C1.79292 2.69201 1.5252 2.95973 1.35743 3.28901C1.16669 3.66336 1.16669 4.1534 1.16669 5.1335V8.86683C1.16669 9.84695 1.16669 10.3369 1.35743 10.7113C1.5252 11.0406 1.79292 11.3083 2.1222 11.4761C2.49655 11.6668 2.98659 11.6668 3.96669 11.6668Z" stroke="#334155" stroke-width="1.1" stroke-linecap="round" stroke-linejoin="round"/>
</svg>
