<svg width="14" height="14" viewBox="0 0 14 14" fill="none" xmlns="http://www.w3.org/2000/svg">
<g clip-path="url(#clip0_11_2685)">
<path d="M4.66675 4.6665H4.67258M1.16675 3.03317V5.6433C1.16675 5.92866 1.16675 6.07135 1.19898 6.20563C1.22756 6.32463 1.2747 6.43844 1.33867 6.54285C1.41081 6.66057 1.5117 6.76149 1.71348 6.96326L6.18686 11.4366C6.87986 12.1296 7.22642 12.4762 7.62594 12.606C7.97746 12.7202 8.35604 12.7202 8.7075 12.606C9.10708 12.4762 9.45364 12.1296 10.1466 11.4366L11.4369 10.1464C12.1299 9.4534 12.4764 9.10684 12.6062 8.70725C12.7204 8.3558 12.7204 7.97721 12.6062 7.6257C12.4764 7.22617 12.1299 6.87961 11.4369 6.18661L6.96351 1.71324C6.76173 1.51146 6.66082 1.41057 6.5431 1.33842C6.43868 1.27446 6.32487 1.22732 6.20587 1.19874C6.07159 1.1665 5.92891 1.1665 5.64355 1.1665H3.03341C2.38002 1.1665 2.05332 1.1665 1.80376 1.29366C1.58424 1.40551 1.40576 1.58399 1.29391 1.80352C1.16675 2.05308 1.16675 2.37977 1.16675 3.03317ZM4.95841 4.6665C4.95841 4.82759 4.82783 4.95817 4.66675 4.95817C4.50567 4.95817 4.37508 4.82759 4.37508 4.6665C4.37508 4.50542 4.50567 4.37484 4.66675 4.37484C4.82783 4.37484 4.95841 4.50542 4.95841 4.6665Z" stroke="#334155" stroke-width="1.1" stroke-linecap="round" stroke-linejoin="round"/>
</g>
<defs>
<clipPath id="clip0_11_2685">
<rect width="14" height="14" fill="white"/>
</clipPath>
</defs>
</svg>
