<svg width="16" height="16" viewBox="0 0 16 16" fill="none" xmlns="http://www.w3.org/2000/svg">
<path d="M7.00027 7.99984H3.33362M3.27718 8.19417L1.72057 12.844C1.59828 13.2093 1.53713 13.3919 1.58101 13.5044C1.61912 13.6021 1.70096 13.6762 1.80195 13.7043C1.91824 13.7368 2.09389 13.6578 2.44517 13.4996L13.5861 8.48624C13.9291 8.33191 14.1005 8.25477 14.1535 8.14757C14.1995 8.05451 14.1995 7.94524 14.1535 7.85211C14.1005 7.74497 13.9291 7.66777 13.5861 7.51351L2.44129 2.49835C2.09106 2.34074 1.91595 2.26194 1.79977 2.29426C1.69888 2.32234 1.61704 2.3962 1.57881 2.49369C1.53477 2.60595 1.59527 2.78821 1.71625 3.15271L3.27761 7.85691C3.29839 7.91951 3.30878 7.95077 3.31289 7.98277C3.31653 8.01124 3.31649 8.03997 3.31277 8.06837C3.30859 8.10037 3.29812 8.13164 3.27718 8.19417Z" stroke="#0F172A" stroke-width="1.3" stroke-linecap="round" stroke-linejoin="round"/>
</svg>
