<svg width="16" height="16" viewBox="0 0 16 16" fill="none" xmlns="http://www.w3.org/2000/svg">
<g clip-path="url(#clip0_16_3507)">
<path d="M8.00037 10C9.10491 10 10.0004 9.1046 10.0004 8C10.0004 6.8954 9.10491 6 8.00037 6C6.89577 6 6.00037 6.8954 6.00037 8C6.00037 9.1046 6.89577 10 8.00037 10Z" stroke="#334155" stroke-width="1.3" stroke-linecap="round" stroke-linejoin="round"/>
<path d="M6.193 12.9142L6.58264 13.7906C6.69849 14.0514 6.88749 14.273 7.12676 14.4286C7.36609 14.5841 7.64536 14.6669 7.93076 14.6668C8.21623 14.6669 8.49549 14.5841 8.73476 14.4286C8.97409 14.273 9.16309 14.0514 9.27896 13.7906L9.66856 12.9142C9.80729 12.6033 10.0406 12.3441 10.3352 12.1735C10.6318 12.0024 10.9748 11.9296 11.3152 11.9654L12.2686 12.0668C12.5524 12.0968 12.8388 12.0439 13.093 11.9144C13.3473 11.7849 13.5586 11.5844 13.7012 11.3372C13.844 11.0902 13.912 10.807 13.897 10.5221C13.882 10.2372 13.7846 9.9627 13.6167 9.73203L13.0523 8.95643C12.8513 8.67823 12.7439 8.34336 12.7456 8.00016C12.7456 7.6579 12.854 7.32443 13.0552 7.04756L13.6197 6.27202C13.7876 6.04133 13.885 5.76688 13.9 5.48194C13.915 5.19702 13.8469 4.91386 13.7041 4.66683C13.5615 4.41965 13.3503 4.21916 13.096 4.08965C12.8417 3.96014 12.5553 3.90718 12.2716 3.9372L11.3182 4.03868C10.9778 4.07444 10.6347 4.00158 10.3382 3.83054C10.043 3.659 9.80956 3.3984 9.67156 3.08609L9.27896 2.20979C9.16309 1.94894 8.97409 1.72731 8.73476 1.57176C8.49549 1.41622 8.21623 1.33345 7.93076 1.3335C7.64536 1.33345 7.36609 1.41622 7.12676 1.57176C6.88749 1.72731 6.69849 1.94894 6.58264 2.20979L6.193 3.08609C6.05496 3.3984 5.82159 3.659 5.52634 3.83054C5.22982 4.00158 4.88678 4.07444 4.54634 4.03868L3.59004 3.9372C3.30626 3.90718 3.01987 3.96014 2.76558 4.08965C2.51131 4.21916 2.30005 4.41965 2.15745 4.66683C2.01467 4.91386 1.94664 5.19702 1.96163 5.48194C1.97662 5.76688 2.07398 6.04133 2.2419 6.27202L2.80634 7.04756C3.00763 7.32443 3.11603 7.6579 3.11597 8.00016C3.11603 8.34243 3.00763 8.67596 2.80634 8.95276L2.2419 9.7283C2.07398 9.95896 1.97662 10.2334 1.96163 10.5184C1.94664 10.8033 2.01467 11.0865 2.15745 11.3335C2.3002 11.5806 2.51147 11.781 2.76572 11.9104C3.01997 12.0399 3.30628 12.093 3.59004 12.0631L4.54338 11.9616C4.88383 11.9259 5.22685 11.9988 5.52338 12.1698C5.81973 12.3408 6.05418 12.6015 6.193 12.9142Z" stroke="#334155" stroke-width="1.3" stroke-linecap="round" stroke-linejoin="round"/>
</g>
<defs>
<clipPath id="clip0_16_3507">
<rect width="16" height="16" fill="white"/>
</clipPath>
</defs>
</svg>
