<svg width="16" height="16" viewBox="0 0 16 16" fill="none" xmlns="http://www.w3.org/2000/svg">
<g clip-path="url(#clip0_50_2368)">
<path d="M5.6 2H3.06667C2.6933 2 2.50661 2 2.36401 2.07266C2.23857 2.13658 2.13658 2.23857 2.07266 2.36401C2 2.50661 2 2.6933 2 3.06667V5.6C2 5.97337 2 6.16005 2.07266 6.30266C2.13658 6.4281 2.23857 6.53009 2.36401 6.59401C2.50661 6.66667 2.6933 6.66667 3.06667 6.66667H5.6C5.97337 6.66667 6.16005 6.66667 6.30266 6.59401C6.4281 6.53009 6.53009 6.4281 6.59401 6.30266C6.66667 6.16005 6.66667 5.97337 6.66667 5.6V3.06667C6.66667 2.6933 6.66667 2.50661 6.59401 2.36401C6.53009 2.23857 6.4281 2.13658 6.30266 2.07266C6.16005 2 5.97337 2 5.6 2Z" stroke="#64758B" stroke-width="1.3" stroke-linecap="round" stroke-linejoin="round"/>
<path d="M14.2482 3.71341L12.5531 1.83077C12.3032 1.55328 12.1783 1.41456 12.0289 1.35721C11.8975 1.30674 11.7535 1.29923 11.6175 1.33566C11.4629 1.37708 11.3241 1.50199 11.0467 1.75183L9.16403 3.44696C8.88657 3.69679 8.74783 3.8217 8.69048 3.97113C8.64004 4.10258 8.63246 4.24657 8.66891 4.38258C8.71033 4.53717 8.83523 4.67589 9.08509 4.95338L10.7802 6.83602C11.0301 7.11351 11.155 7.25223 11.3044 7.30958C11.4358 7.36005 11.5798 7.36756 11.7158 7.33113C11.8704 7.28971 12.0092 7.1648 12.2866 6.91496L14.1693 5.21983C14.4467 4.97 14.5855 4.84509 14.6428 4.69566C14.6933 4.56421 14.7009 4.42022 14.6644 4.28421C14.623 4.12962 14.4981 3.9909 14.2482 3.71341Z" stroke="#64758B" stroke-width="1.3" stroke-linecap="round" stroke-linejoin="round"/>
<path d="M12.9335 9.3335H10.4002C10.0268 9.3335 9.8401 9.3335 9.6975 9.40616C9.57203 9.4701 9.4701 9.57203 9.40616 9.6975C9.3335 9.8401 9.3335 10.0268 9.3335 10.4002V12.9335C9.3335 13.3069 9.3335 13.4936 9.40616 13.6362C9.4701 13.7616 9.57203 13.8636 9.6975 13.9275C9.8401 14.0002 10.0268 14.0002 10.4002 14.0002H12.9335C13.3069 14.0002 13.4936 14.0002 13.6362 13.9275C13.7616 13.8636 13.8636 13.7616 13.9275 13.6362C14.0002 13.4936 14.0002 13.3069 14.0002 12.9335V10.4002C14.0002 10.0268 14.0002 9.8401 13.9275 9.6975C13.8636 9.57203 13.7616 9.4701 13.6362 9.40616C13.4936 9.3335 13.3069 9.3335 12.9335 9.3335Z" stroke="#64758B" stroke-width="1.3" stroke-linecap="round" stroke-linejoin="round"/>
<path d="M5.6 9.3335H3.06667C2.6933 9.3335 2.50661 9.3335 2.36401 9.40616C2.23857 9.4701 2.13658 9.57203 2.07266 9.6975C2 9.8401 2 10.0268 2 10.4002V12.9335C2 13.3069 2 13.4936 2.07266 13.6362C2.13658 13.7616 2.23857 13.8636 2.36401 13.9275C2.50661 14.0002 2.6933 14.0002 3.06667 14.0002H5.6C5.97337 14.0002 6.16005 14.0002 6.30266 13.9275C6.4281 13.8636 6.53009 13.7616 6.59401 13.6362C6.66667 13.4936 6.66667 13.3069 6.66667 12.9335V10.4002C6.66667 10.0268 6.66667 9.8401 6.59401 9.6975C6.53009 9.57203 6.4281 9.4701 6.30266 9.40616C6.16005 9.3335 5.97337 9.3335 5.6 9.3335Z" stroke="#64758B" stroke-width="1.3" stroke-linecap="round" stroke-linejoin="round"/>
</g>
<defs>
<clipPath id="clip0_50_2368">
<rect width="16" height="16" fill="white"/>
</clipPath>
</defs>
</svg>
