<svg width="16" height="16" viewBox="0 0 16 16" fill="none" xmlns="http://www.w3.org/2000/svg">
<g clip-path="url(#clip0_16_3399)">
<path d="M5.33337 5.3335H5.34004M1.33337 3.46683V6.44984C1.33337 6.77596 1.33337 6.93903 1.37021 7.0925C1.40287 7.2285 1.45675 7.35856 1.52985 7.4779C1.61231 7.61243 1.72761 7.72776 1.95821 7.95836L7.07064 13.0708C7.86264 13.8628 8.25871 14.2588 8.71531 14.4072C9.11704 14.5377 9.54971 14.5377 9.95137 14.4072C10.408 14.2588 10.8041 13.8628 11.5961 13.0708L13.0706 11.5962C13.8626 10.8042 14.2587 10.4082 14.407 9.9515C14.5376 9.54983 14.5376 9.11716 14.407 8.71543C14.2587 8.25883 13.8626 7.86276 13.0706 7.07076L7.95824 1.95834C7.72764 1.72773 7.61231 1.61243 7.47777 1.52998C7.35844 1.45687 7.22837 1.403 7.09237 1.37034C6.93891 1.3335 6.77584 1.3335 6.44972 1.3335H3.46671C2.71997 1.3335 2.3466 1.3335 2.06139 1.47882C1.81051 1.60665 1.60653 1.81062 1.4787 2.06151C1.33337 2.34672 1.33337 2.72009 1.33337 3.46683ZM5.66671 5.3335C5.66671 5.51759 5.51747 5.66683 5.33337 5.66683C5.14928 5.66683 5.00004 5.51759 5.00004 5.3335C5.00004 5.1494 5.14928 5.00016 5.33337 5.00016C5.51747 5.00016 5.66671 5.1494 5.66671 5.3335Z" stroke="#0F172A" stroke-width="1.3" stroke-linecap="round" stroke-linejoin="round"/>
</g>
<defs>
<clipPath id="clip0_16_3399">
<rect width="16" height="16" fill="white"/>
</clipPath>
</defs>
</svg>
