<svg width="16" height="16" viewBox="0 0 16 16" fill="none" xmlns="http://www.w3.org/2000/svg">
<g clip-path="url(#clip0_16_3503)">
<path d="M3.33337 10.0002C2.71212 10.0002 2.40149 10.0002 2.15646 9.8987C1.82976 9.76336 1.57019 9.50376 1.43487 9.1771C1.33337 8.93203 1.33337 8.62143 1.33337 8.00016V3.46683C1.33337 2.7201 1.33337 2.34672 1.4787 2.06151C1.60653 1.81062 1.8105 1.60665 2.06139 1.47882C2.3466 1.3335 2.71997 1.3335 3.46671 1.3335H8.00004C8.62131 1.3335 8.93191 1.3335 9.17697 1.43499C9.50364 1.57032 9.76324 1.82988 9.89857 2.15658C10 2.40162 10 2.71224 10 3.3335M8.13337 14.6668H12.5334C13.2801 14.6668 13.6535 14.6668 13.9387 14.5215C14.1896 14.3937 14.3936 14.1897 14.5214 13.9388C14.6667 13.6536 14.6667 13.2802 14.6667 12.5335V8.1335C14.6667 7.38676 14.6667 7.01336 14.5214 6.72816C14.3936 6.47729 14.1896 6.27332 13.9387 6.14549C13.6535 6.00016 13.2801 6.00016 12.5334 6.00016H8.13337C7.38664 6.00016 7.01324 6.00016 6.72804 6.14549C6.47717 6.27332 6.27319 6.47729 6.14537 6.72816C6.00004 7.01336 6.00004 7.38676 6.00004 8.1335V12.5335C6.00004 13.2802 6.00004 13.6536 6.14537 13.9388C6.27319 14.1897 6.47717 14.3937 6.72804 14.5215C7.01324 14.6668 7.38664 14.6668 8.13337 14.6668Z" stroke="#334155" stroke-width="1.3" stroke-linecap="round" stroke-linejoin="round"/>
</g>
<defs>
<clipPath id="clip0_16_3503">
<rect width="16" height="16" fill="white"/>
</clipPath>
</defs>
</svg>
