<svg width="16" height="16" viewBox="0 0 16 16" fill="none" xmlns="http://www.w3.org/2000/svg">
<path d="M14.3333 11.9998L9.90465 7.99984M6.09516 7.99984L1.66661 11.9998M1.33325 4.6665L6.77652 8.47677C7.21732 8.78537 7.43772 8.93964 7.67745 8.99937C7.88919 9.05217 8.11065 9.05217 8.32238 8.99937C8.56212 8.93964 8.78252 8.78537 9.22332 8.47677L14.6666 4.6665M4.53325 13.3332H11.4666C12.5867 13.3332 13.1467 13.3332 13.5746 13.1152C13.9509 12.9234 14.2569 12.6175 14.4486 12.2412C14.6666 11.8133 14.6666 11.2533 14.6666 10.1332V5.8665C14.6666 4.7464 14.6666 4.18634 14.4486 3.75852C14.2569 3.3822 13.9509 3.07624 13.5746 2.88449C13.1467 2.6665 12.5867 2.6665 11.4666 2.6665H4.53325C3.41315 2.6665 2.85309 2.6665 2.42527 2.88449C2.04895 3.07624 1.74299 3.3822 1.55124 3.75852C1.33325 4.18634 1.33325 4.7464 1.33325 5.8665V10.1332C1.33325 11.2533 1.33325 11.8133 1.55124 12.2412C1.74299 12.6175 2.04895 12.9234 2.42527 13.1152C2.85309 13.3332 3.41315 13.3332 4.53325 13.3332Z" stroke="#64758B" stroke-width="1.3" stroke-linecap="round" stroke-linejoin="round"/>
</svg>
