<svg width="16" height="16" viewBox="0 0 16 16" fill="none" xmlns="http://www.w3.org/2000/svg">
<g clip-path="url(#clip0_11_2523)">
<path d="M7.99992 1.3335L7.13225 4.80416C6.96292 5.4814 6.87832 5.82002 6.70198 6.09556C6.54602 6.33928 6.33904 6.54626 6.09531 6.70223C5.81977 6.87856 5.48115 6.96316 4.80391 7.1325L1.33325 8.00016L4.80391 8.86783C5.48115 9.03716 5.81977 9.12176 6.09531 9.2981C6.33904 9.45403 6.54602 9.66103 6.70198 9.90476C6.87832 10.1803 6.96292 10.519 7.13225 11.1962L7.99992 14.6668L8.86759 11.1962C9.03692 10.519 9.12152 10.1803 9.29785 9.90476C9.45379 9.66103 9.66078 9.45403 9.90452 9.2981C10.1801 9.12176 10.5187 9.03716 11.1959 8.86783L14.6666 8.00016L11.1959 7.1325C10.5187 6.96316 10.1801 6.87856 9.90452 6.70223C9.66078 6.54626 9.45379 6.33928 9.29785 6.09556C9.12152 5.82002 9.03692 5.4814 8.86759 4.80416L7.99992 1.3335Z" stroke="#64758B" stroke-width="1.3" stroke-linecap="round" stroke-linejoin="round"/>
</g>
<defs>
<clipPath id="clip0_11_2523">
<rect width="16" height="16" fill="white"/>
</clipPath>
</defs>
</svg>
