<svg width="16" height="16" viewBox="0 0 16 16" fill="none" xmlns="http://www.w3.org/2000/svg">
<g clip-path="url(#clip0_11_2520)">
<path d="M11.9999 4.66683V3.46683C11.9999 2.7201 11.9999 2.34672 11.8546 2.06151C11.7268 1.81062 11.5228 1.60665 11.2719 1.47882C10.9867 1.3335 10.6133 1.3335 9.86658 1.3335H6.13325C5.38652 1.3335 5.01315 1.3335 4.72793 1.47882C4.47705 1.60665 4.27307 1.81062 4.14525 2.06151C3.99992 2.34672 3.99992 2.7201 3.99992 3.46683V4.66683M3.99992 12.0002C3.37994 12.0002 3.06995 12.0002 2.81561 11.932C2.12543 11.7471 1.58633 11.208 1.4014 10.5178C1.33325 10.2635 1.33325 9.9535 1.33325 9.3335V7.86683C1.33325 6.7467 1.33325 6.18667 1.55124 5.75885C1.74299 5.38252 2.04895 5.07656 2.42527 4.88482C2.85309 4.66683 3.41315 4.66683 4.53325 4.66683H11.4666C12.5867 4.66683 13.1467 4.66683 13.5746 4.88482C13.9509 5.07656 14.2569 5.38252 14.4486 5.75885C14.6666 6.18667 14.6666 6.7467 14.6666 7.86683V9.3335C14.6666 9.9535 14.6666 10.2635 14.5985 10.5178C14.4135 11.208 13.8744 11.7471 13.1843 11.932C12.9299 12.0002 12.6199 12.0002 11.9999 12.0002M9.99992 7.00016H11.9999M6.13325 14.6668H9.86658C10.6133 14.6668 10.9867 14.6668 11.2719 14.5215C11.5228 14.3937 11.7268 14.1897 11.8546 13.9388C11.9999 13.6536 11.9999 13.2802 11.9999 12.5335V11.4668C11.9999 10.7201 11.9999 10.3467 11.8546 10.0615C11.7268 9.81063 11.5228 9.60663 11.2719 9.47883C10.9867 9.3335 10.6133 9.3335 9.86658 9.3335H6.13325C5.38652 9.3335 5.01315 9.3335 4.72793 9.47883C4.47705 9.60663 4.27307 9.81063 4.14525 10.0615C3.99992 10.3467 3.99992 10.7201 3.99992 11.4668V12.5335C3.99992 13.2802 3.99992 13.6536 4.14525 13.9388C4.27307 14.1897 4.47705 14.3937 4.72793 14.5215C5.01315 14.6668 5.38651 14.6668 6.13325 14.6668Z" stroke="#64758B" stroke-width="1.3" stroke-linecap="round" stroke-linejoin="round"/>
</g>
<defs>
<clipPath id="clip0_11_2520">
<rect width="16" height="16" fill="white"/>
</clipPath>
</defs>
</svg>
