<svg width="16" height="16" viewBox="0 0 16 16" fill="none" xmlns="http://www.w3.org/2000/svg">
<g clip-path="url(#clip0_16_3395)">
<path d="M8.57148 10.3333H5.00004C4.06967 10.3333 3.60447 10.3333 3.22595 10.4481C2.37367 10.7067 1.70673 11.3737 1.4482 12.2259C1.33337 12.6045 1.33337 13.0696 1.33337 14M9.66671 5C9.66671 6.65685 8.32357 8 6.66671 8C5.00985 8 3.66671 6.65685 3.66671 5C3.66671 3.34315 5.00985 2 6.66671 2C8.32357 2 9.66671 3.34315 9.66671 5Z" stroke="#0F172A" stroke-width="1.3" stroke-linecap="round" stroke-linejoin="round"/>
<path d="M11.4286 9.00146C11.5461 8.6676 11.7779 8.386 12.0831 8.20666C12.3883 8.02726 12.7471 7.96173 13.0959 8.02159C13.4448 8.08139 13.7613 8.26279 13.9892 8.53359C14.2172 8.80439 14.3419 9.14713 14.3414 9.50113C14.3414 10.5004 12.8425 11 12.8425 11M12.8619 13H12.8686" stroke="#0F172A" stroke-width="1.3" stroke-linecap="round" stroke-linejoin="round"/>
</g>
<defs>
<clipPath id="clip0_16_3395">
<rect width="16" height="16" fill="white"/>
</clipPath>
</defs>
</svg>
