<svg width="16" height="16" viewBox="0 0 16 16" fill="none" xmlns="http://www.w3.org/2000/svg">
<g clip-path="url(#clip0_57_8527)">
<path d="M5.3335 9.3335C5.3335 9.3335 6.3335 10.6668 8.00016 10.6668C9.66683 10.6668 10.6668 9.3335 10.6668 9.3335M10.0002 6.00016H10.0068M6.00016 6.00016H6.00683M14.6668 8.00016C14.6668 11.682 11.682 14.6668 8.00016 14.6668C4.31826 14.6668 1.3335 11.682 1.3335 8.00016C1.3335 4.31826 4.31826 1.3335 8.00016 1.3335C11.682 1.3335 14.6668 4.31826 14.6668 8.00016ZM10.3335 6.00016C10.3335 6.18426 10.1842 6.3335 10.0002 6.3335C9.8161 6.3335 9.66683 6.18426 9.66683 6.00016C9.66683 5.81607 9.8161 5.66683 10.0002 5.66683C10.1842 5.66683 10.3335 5.81607 10.3335 6.00016ZM6.3335 6.00016C6.3335 6.18426 6.18426 6.3335 6.00016 6.3335C5.81607 6.3335 5.66683 6.18426 5.66683 6.00016C5.66683 5.81607 5.81607 5.66683 6.00016 5.66683C6.18426 5.66683 6.3335 5.81607 6.3335 6.00016Z" stroke="#334155" stroke-width="1.3" stroke-linecap="round" stroke-linejoin="round"/>
</g>
<defs>
<clipPath id="clip0_57_8527">
<rect width="16" height="16" fill="white"/>
</clipPath>
</defs>
</svg>
